# xmcd
#
# Track frame offsets: 
#        150
#        11282
#        25499
#        41326
#        56725
#        72389
#        86280
#        105062
#        122863
#        136017
#
# Disc length: 1996 seconds
#
# Revision: 0
# Processed by: cddbd v1.5.2PL0 Copyright (c) Steve Scherf et al.
# Submitted via: ExactAudioCopy v0.95b4
#
DISCID=7307ca0a
DTITLE=DARCY MAZEROLLE - COWBOY ENOUGH FOR ME
DYEAR=2005
DGENRE=COUNTRY
TTITLE0=NICE TRY
TTITLE1=HONKY TONK BABY
TTITLE2=THE WRONG SIDE
TTITLE3=JACK DANIELS BLUES
TTITLE4=THINKIN' BOUT YOU
TTITLE5=BACK TO THE RIVER
TTITLE6=DOIN' ALRIGHT
TTITLE7=COWBOY ENOUGH FOR ME
TTITLE8=LAP OF LUXURY
TTITLE9=MY OLD FRIEND OF THE BLUES
EXTD=
EXTT0=
EXTT1=
EXTT2=
EXTT3=
EXTT4=
EXTT5=
EXTT6=
EXTT7=
EXTT8=
EXTT9=
PLAYORDER=
